<svg id="Layer_3" data-name="Layer 3" xmlns="http://www.w3.org/2000/svg" viewBox="0 0 50 50"><defs><style>.cls-1{fill:#fff;}</style></defs><title>ss-logo</title><path class="cls-1" d="M4.5,13.29l1,.19a1.92,1.92,0,0,1,.85.43h.06q0-.57.1-.57a2.61,2.61,0,0,0,.53.16h.53l0,0v2a.36.36,0,0,1-.1.26.33.33,0,0,1,.12.22.51.51,0,0,1-.09.25l0,.25q0,.18-.09.18l-.38-.06H7l-.21.06h0s-.1-.21-.19-.63a.49.49,0,0,0-.18-.37.92.92,0,0,1-.19-.38l.09,0h0a.68.68,0,0,1-.26-.4,1.65,1.65,0,0,0-1-.6h-.1a14.4,14.4,0,0,0-1.47.31,2.23,2.23,0,0,0-.38.56,1.18,1.18,0,0,0-.28.71q.09.94.24.94a1,1,0,0,0,.46.6s.15.1.35.15a3.32,3.32,0,0,0,.87.47s0,.06.15.07L5,18c.08,0,.12,0,.12.06h0l-.06.06v0a.63.63,0,0,0,.5.25h0l-.28-.24h0a3.86,3.86,0,0,1,.94.51q1.22,1.13,1.22,1.44a7.36,7.36,0,0,1,.21,1.12q-.13,1.12-.25,1.12l-.35.62a4.75,4.75,0,0,1-1.19.62A17.64,17.64,0,0,1,3.65,23Q2.5,21.9,2.5,21.71l-.06,0h0v.9q0,.1-.53.1H1.62l-.22.07a.44.44,0,0,1-.26-.16h0l.07-.12A8,8,0,0,1,1.46,20h0l.26,0a.29.29,0,0,0,.15,0l.19,0,.1,0h.06a1.59,1.59,0,0,1,.26.43q.56.71,1,1.35s.16.13.37.4l.91.4h.26v.06h0l.07,0h0a.38.38,0,0,0,.22.09H5.5q.4,0,.4-.1v0H5.43a4.08,4.08,0,0,1,1-.22q.23,0,.46-.82a.49.49,0,0,1,.13-.38V21a2.1,2.1,0,0,0-.56-1,2.84,2.84,0,0,0-1.34-.72,4.3,4.3,0,0,1-1.23-.69q-.69-.21-.79-.46a2.5,2.5,0,0,0-.68-.63,4.86,4.86,0,0,0-.57-1.25,5.62,5.62,0,0,1-.16-1.37,3.35,3.35,0,0,1,1.06-1.34A3.79,3.79,0,0,1,4.5,13.29ZM1.62,20.93H1.56a1.79,1.79,0,0,0-.07.56l0,.19h0q.13,0,.13-.12A4.9,4.9,0,0,1,1.62,20.93ZM1.53,22l0,0h0s.05-.1.07-.29l0,0S1.55,21.85,1.53,22Zm.4-.69a.69.69,0,0,1-.16.32l.06.16v.47c0,.07,0,.1.06.1H2l0,0v-.06Q2,21.36,1.93,21.36Zm.19-6.68,0,0h.07v-.06ZM2.46,17v.1l.06.06h.12v-.06A.28.28,0,0,0,2.46,17Zm.06-1.65h0a.68.68,0,0,0,.26-.44l0,0Q2.59,14.9,2.52,15.37Zm.22,2h0v.07a1,1,0,0,0,.41.22h.06v-.06A1.83,1.83,0,0,0,2.74,17.42Zm0,4.31h0v0q.06.24.22.24v0C2.88,21.8,2.81,21.72,2.74,21.72Zm0-6.93.09.09h0a.56.56,0,0,0,.32-.19l0,0H3A.25.25,0,0,0,2.77,14.8Zm0-1H3A9.92,9.92,0,0,0,4,13.55q.35-.06.35-.12H4.34Q2.78,13.55,2.78,13.8Zm.07.35h0s0,0,.06,0a.18.18,0,0,0,.1-.1v0C2.93,14.08,2.88,14.1,2.86,14.15Zm.37.19h0a2.36,2.36,0,0,0,.69-.26l.4-.15h0l0,.09h.12l.09,0v-.06l0,0v-.09h0a6.17,6.17,0,0,0-1,.37C3.31,14.21,3.22,14.27,3.22,14.34Zm0,7.51h0q.12.22.24.22v0A1.17,1.17,0,0,0,3.25,21.86Zm.16.62h-.1A1.09,1.09,0,0,0,4,23a11.07,11.07,0,0,0,1.37.37.73.73,0,0,0,.31.13h.13c.24-.07.37-.16.37-.26l-1.32-.1A5.25,5.25,0,0,1,3.42,22.47ZM3.9,10.8l.68-.16a5.64,5.64,0,0,0,.49,1,4.07,4.07,0,0,0,.24.4c.06.09.11.12.14.1a13,13,0,0,1,1-1.46l.5.13-.25.44a2.38,2.38,0,0,1-.38.49L6.14,12a6.06,6.06,0,0,1-.37.49s0,0,0,0h0s0,.06-.13.07l-.1,0a.73.73,0,0,1-.34,0,1.81,1.81,0,0,0-.31-.25q-.07-.16-.12-.16L4.68,12l-.24-.21,0,0-.09-.15q-.06-.18-.12-.21Zm.22,11.65h0a.1.1,0,0,0,.1.07C4.2,22.47,4.17,22.45,4.12,22.45Zm.19-11.59h.26l-.16,0h0S4.31,10.84,4.31,10.86Zm.06.21h0Zm.07.38a0,0,0,0,0,0,0A0,0,0,0,0,4.44,11.45Zm.13,6.47H4.44s0,.06.12.06h.06Zm.15.22,0,0a1.49,1.49,0,0,0,.49.28v-.06A1,1,0,0,0,4.72,18.14Zm.22-6.41h0q0,.25,0,.25C5,11.81,5,11.73,4.94,11.73ZM5.06,19H5v.07a1.28,1.28,0,0,0,.47.1s0,.06.1.06h.12Q5.68,19.11,5.06,19Zm.07-6.84h0s0,0,.09.06h0Zm.06.29h0v0h0Zm0-.06h0a.33.33,0,0,0,.28,0h0Zm0-.24h0s0,.06.07.09h0l.06,0A.18.18,0,0,1,5.28,12.18Zm.43,1.75H5.46a1.49,1.49,0,0,0,.44.15H6v0Q6,13.93,5.71,13.93Zm-.18-1.57h0a.07.07,0,0,0,.07,0s.07-.05.07-.07h0Zm0,10.91v-.06h0c.07,0,.1,0,.1.06H5.56Zm.22-10.88h0l-.12.15h0c.08,0,.12,0,.13-.13S5.78,12.41,5.78,12.39Zm.07-.5h0q-.19.24-.12.37h0l.1-.32,0,0Zm-.07.49h0s.14-.13.32-.4v-.06a.27.27,0,0,0-.26.16A2.64,2.64,0,0,0,5.78,12.37Zm.26,7H6v0l0,0h0v0ZM6,22.9v0l0,0h.07q.53,0,.59-.15l-.06,0H6.56A2.35,2.35,0,0,0,6,22.9Zm.19-8.68.07.07h.07l0,0v0s0-.06-.12-.09A.1.1,0,0,0,6.19,14.23Zm0-2.63,0,0h0v0Zm0,0a.13.13,0,0,0,.07-.07h0S6.27,11.51,6.25,11.56Zm.07-.15v0h0a.12.12,0,0,0,0-.07v0h0A.07.07,0,0,0,6.33,11.42Zm.1-.13h0s0,0,.06-.09h0S6.46,11.22,6.43,11.29Zm.1-.1h0a.22.22,0,0,0,.09-.07h.07L6.58,11h0s0,0-.06-.06S6.49,11,6.53,11.18Zm.13,2.43v.1c0,.06,0,.09.12.09H7A.44.44,0,0,0,6.66,13.61Zm.06.34,0,.06v.12h0l0,0V14l0-.06Zm.21,1.18-.06,0h0l.06.06H7L7,15.18H7l-.06,0Zm0,.79v.24l0,0H7a.12.12,0,0,0,.13-.1A.8.8,0,0,1,7,15.78H7A.13.13,0,0,0,6.91,15.92Zm0-1.48,0,0H7l-.06.07v0s0,0,.12.07,0,.12.09.13h0v-.06l0,0v-.06h0l.07.06h0v-.12c-.07-.27-.12-.41-.15-.41H7.09A.25.25,0,0,0,6.94,14.43Zm0,1.09h0v0l0,0H7v0Zm0,.87,0,0,.07,0h0v0l-.06,0Zm.07,5.72L7,22.18l.06.06h.07l.06-.06v0l0,0ZM7.16,15l0,0h0Zm.1.22-.06,0v.21h0l0-.25Zm0-.32H7.24v0q0,.09.09.09v-.12Z"/><path class="cls-1" d="M8,12.31l.09,0h.12a3.53,3.53,0,0,1,1.53.37q.1,0,.19.57l-.07.13v0A5.4,5.4,0,0,1,10,15.27,26.47,26.47,0,0,0,10.19,19h.06q.79-.65,2.46-1.78.13,0,.22-1.31,0-.31.29-.31l.59,0q1.32,0,1.59.28v0l0,0a1.24,1.24,0,0,0-.41-.1l0,.06h0q0,.09.43.13.12,0,.12.69,0,.28-.22.28s-.11.07-.22.21h-.4q0,.16-.34.32s-.06,0-.06.07l.06.1-1.41,1v0q0,.09,1.46,3a3.61,3.61,0,0,1,.26.68h-.09l-.09-.09h0q0,.18.56.18,1,0,1,.18l-.12.15a1.92,1.92,0,0,1,.19,1,.18.18,0,0,1-.21.21h-.13a14.44,14.44,0,0,0-1.72-.06h-.09q-.18,0-.26-.46a7.19,7.19,0,0,0-.29-1.4q-.34-.76-1-2-.25-.74-.38-.74a2,2,0,0,0-.79.46.56.56,0,0,1-.28.16c-.06,0-.09,0-.09-.06h0l0-.07h-.09q-.09,0-.19.4v.09a.27.27,0,0,0-.12.25l0,1.57q0,.19.63.25a1.55,1.55,0,0,0,.46.21l.06.15v.38l0,.21v0a.43.43,0,0,1-.22.19h-.1v.06q0,.1.21.18v0s-.06.05-.18.07l-.69-.18a15.85,15.85,0,0,1-1.85-.16l-.21,0q-.19-.09-.19-.47V23h0a.49.49,0,0,1,.22-.41h.06v.22l.06.06h.19l-.06-.07v0h.26L8.9,22.5l.21,0v0s-.06,0-.15,0H8.9l-.31,0v0q0-.1.66-.21a4.09,4.09,0,0,1,.5-.09l0-.06h0s-.07,0-.21,0-.12-.42-.12-1.26a9.43,9.43,0,0,0-.28-2.1A39,39,0,0,0,9,14.26s-.17-.06-.51-.09l-.43.1A.55.55,0,0,1,7.84,14l0-.91V13c0-.15,0-.22.06-.22l.16,0v0a.52.52,0,0,0-.12-.22v-.07c.08,0,.12,0,.12,0L8,12.37Zm.44,1.07v0s.07.07.22.1v0q-.28,0-.28.09v.06l0,0h.15a.35.35,0,0,0,.32-.26l.06-.06q0-.09-.35-.09H8.5C8.43,13.34,8.4,13.36,8.4,13.39ZM8.77,23h0v0h.78q.47,0,.47-.07v0s-.11,0-.32,0A5.53,5.53,0,0,0,8.77,23Zm.47.24,0,0,1.59.22v0q0-.21-.9-.21Zm.09-10.09v0c0,.1.1.15.18.15a.39.39,0,0,0,.1-.26H9.55A.23.23,0,0,0,9.33,13.15Zm.24,1.53,0,.06V15q0,.35.07.35h0l0,0v-.21Q9.65,14.68,9.56,14.68Zm0,2.13h0v.07l0,0,.06-.06Zm.31,6h0v0H9.9Zm.06-3.56,0,.07h0l0,0v0Zm0,1.32v.21l0,0c.08,0,.12,0,.12-.15v-.24l0,0h0C9.91,20.43,9.88,20.49,9.88,20.59Zm0-.57v.13l0,0h0S10,20.11,10,20v0a1,1,0,0,0-.06-.32h0S9.9,19.78,9.9,20Zm0,2,.07.07h0a.11.11,0,0,0,.07-.12c0-.07,0-.1,0-.1S9.9,22,9.9,22Zm.15-.88H10v.24h0s.06-.06.06-.15Zm.28-1.9v0h.06a.39.39,0,0,0,.32-.18v0A.53.53,0,0,0,10.33,19.25Zm0,3.57,0,0h.07Zm.13.29,0,0v0h.31S10.66,23.12,10.49,23.12Zm.34-.29a.33.33,0,0,0,.31.19h0l0,0a.44.44,0,0,0-.15-.24H11A.16.16,0,0,0,10.83,22.83Zm.1-3.23v0h0a1.63,1.63,0,0,0,.51-.32v0Q10.93,19.5,10.93,19.59ZM11,23.43h-.06v0l0,0h.12l0,0S11.06,23.43,11,23.43Zm.38-.78h0v0l.06,0h0v0Zm.73-3.43q.1.28.22.28h0c0-.22-.07-.32-.19-.32S12.1,19.19,12.1,19.23Zm.56.78h0a5.29,5.29,0,0,0,.53,1.24h.07v0A3.16,3.16,0,0,0,12.66,20Zm.19-1.82v0h0a4,4,0,0,0,1.38-.85l0-.06h0A4.34,4.34,0,0,0,12.85,18.18Zm0-.65h0a2,2,0,0,0,.46-.26q.15,0,.15-.09v-.06h-.09Q13.24,17.14,12.88,17.53Zm.15-.68.06.06h0c.08,0,.12,0,.13-.06v0h-.06C13.1,16.81,13.05,16.83,13,16.86Zm.06-.32c0,.13,0,.19.06.19h.1s0,0,0-.06l-.07-.18.07-.26v0h0A.36.36,0,0,0,13.09,16.53Zm.21,4.88h0v0a.89.89,0,0,0,.25.46h.06a1.24,1.24,0,0,0-.26-.49Zm.15-5.73h-.09v.09h.07l0,0v0Zm0,4.85h0v0l.06.06h0v-.06Zm.43,1.85v0l0,.06H14l.06-.06a.14.14,0,0,0-.13-.09C13.9,22.34,13.87,22.36,13.87,22.39Zm.56-5.73s.16.05.47.07c.11,0,.16,0,.16-.07v-.06h-.4C14.51,16.59,14.43,16.61,14.43,16.65Zm.21,7.09h.06l.31,0,.35,0h0l0,0h-.66C14.68,23.7,14.63,23.71,14.63,23.74Zm.12-.76,0,0,.07.06h.06L14.9,23l0,0Zm.4.07H15l.07,0h.07Zm.53-.25h0v.07l0,0h0v-.07Zm0,.47v.25h0s.06-.1.06-.31v-.1S15.68,23.18,15.68,23.27Z"/><path class="cls-1" d="M20.21,16.45l.41.12h.13a8.57,8.57,0,0,1,1.56,1q.75.65.75,1h0q-.12-.21-.24-.21h0s0,0,0,.06a5.57,5.57,0,0,0,.26.56h0s0,0,.07-.15h0s.06.15.1.43l.13.29,0,.19,0,.53a8.09,8.09,0,0,0-.19,1,12.71,12.71,0,0,1-1.37,2.09,1.71,1.71,0,0,1-1.15.56,10.35,10.35,0,0,1-1.16.06h-.28a5.49,5.49,0,0,1-1.31-.43q-1.34-1.19-1.34-1.82-.19-.4-.32-.74a6.67,6.67,0,0,1,.4-1.26,1.16,1.16,0,0,1,.32-.94,3.56,3.56,0,0,1,1.75-1.93A4.61,4.61,0,0,1,20.21,16.45Zm-3.72,4.34,0,0q0,.13,0,.13h0v-.07l0-.09Zm.37.69-.06,0v.1q0,.5.28.56h0Q17,21.47,16.85,21.47Zm.09-2.28s.09,0,.13-.1v0A.12.12,0,0,0,16.94,19.2Zm.29-.5h0s.06,0,.06-.12h0A.13.13,0,0,0,17.24,18.7Zm.09,1.76-.06.06v0h0l0,0v0Zm.07,2-.06,0v0l.12.12h.06A.21.21,0,0,0,17.4,22.45Zm.16-1.38v.09L18,22q0,.15.56.41a1.88,1.88,0,0,0,1,.49l.26,0a4.83,4.83,0,0,0,1-.28l.53-.44a2.28,2.28,0,0,0,.79-1.49v-.13a2.37,2.37,0,0,1-.09-.76,2.8,2.8,0,0,1,.06-.65q0-.1-.57-.51a1.72,1.72,0,0,0-.85-.72h-.18q-1.72.07-1.72.28a2.3,2.3,0,0,0-.53.75q-.47.5-.47.66A11.56,11.56,0,0,0,17.56,21.06Zm.15,1.9h-.1V23a1,1,0,0,0,.69.19h.16A1.84,1.84,0,0,0,17.71,23Zm.12-4.37v.1h0q.19-.18.19-.28H18A.53.53,0,0,0,17.83,18.59ZM18,17.5l0,.07v.06a4.83,4.83,0,0,0,.9-.62L19,17h.09q1-.1,1-.19h0l-.24,0A2.57,2.57,0,0,0,18,17.5Zm.12.32a.32.32,0,0,0,.25-.18v0Q18.13,17.68,18.13,17.83Zm.06.41h-.06v.06h0l0,0Zm.21,5.12h.19l0,0,0,0h0C18.46,23.3,18.41,23.32,18.4,23.36Zm.31-.21v0q0,.09.41.09h0v0A1,1,0,0,0,18.71,23.15Zm.43-5.84v.07a5.85,5.85,0,0,0,1.15-.18l-.12,0h0A2.54,2.54,0,0,0,19.13,17.31Zm0,.5h0l0,0h.21l1-.24v0l-.28-.06Q19.16,17.67,19.16,17.81Zm1,5.69v0s.07.05.22.07.25,0,.25-.07v0a.22.22,0,0,0-.1-.12h-.13A.26.26,0,0,0,20.13,23.5Zm.25-6.75a.31.31,0,0,0,.32.21h.18v-.07q0-.16-.31-.19C20.45,16.71,20.38,16.73,20.38,16.75Zm0,.63h0l.15-.12h0Q20.38,17.36,20.41,17.39Zm.25-.15h0a.82.82,0,0,0,.44.22v0h0A.71.71,0,0,0,20.66,17.24Zm.26,6.37h0q.26-.09.26-.15l0,0A.4.4,0,0,0,20.93,23.61Zm.22-5.69a.25.25,0,0,0,.21.15V18q0-.13-.12-.13C21.18,17.88,21.15,17.9,21.15,17.92Zm.26-.84,0,0a.44.44,0,0,0,.32.21q0-.16-.25-.25Zm.22.65v0q0,.18.41.37h0l0,0h0A1.91,1.91,0,0,0,21.63,17.73Zm.32.46H21.9a.73.73,0,0,0,.43.32h.06l0,0h0A.69.69,0,0,0,22,18.18Zm.62,3.6h0c.08,0,.15-.08.21-.24v0h0C22.68,21.53,22.62,21.62,22.57,21.78Zm.24-.26h.07l.06,0c0-.16,0-.23-.07-.21h0v.16Zm.12-.81q0,.44.07.47h0a.63.63,0,0,1,.13-.35v0L23,20.56h0S22.94,20.61,22.93,20.71Zm.24-1,0,0v.06l0,.06.06-.06v-.06l0,0Z"/><path class="cls-1" d="M24.34,12.42l.22-.06.62.16,1,0q.37,0,.37.22a9.94,9.94,0,0,0-.09,1.48V19.3l-.07,2.79a8.26,8.26,0,0,0,1.51.19h0v.21s.05.13.16.24a8.42,8.42,0,0,0-.37,1l-.13.1h0a.42.42,0,0,0-.37-.13l-2.41-.32q-1.09,0-1.09-.13a3.65,3.65,0,0,0,.26-1.15h.31a1.93,1.93,0,0,1,.43-.12.56.56,0,0,0,.22.07H25c.1,0,.15-.1.15-.29s.07-1.31.15-3.22q-.1-.88-.18-4.85a.17.17,0,0,0-.15-.1l-.66,0c-.12,0-.18,0-.18-.12Q24.21,12.42,24.34,12.42Zm-.44,10.7,0,.07H24L24,23.12Zm.18-.71,0,0v0l.06,0,0-.06v-.06ZM24.41,13l-.07.07v.1l.06.06h.4v-.06l-.26-.12L24.44,13Zm.07-.34-.09,0v0c0,.09,0,.13.15.13h0a.47.47,0,0,0,.32-.16v0Zm0,9.67,0,0c0,.08,0,.12.1.12h0v-.12l0,0Zm.19.46,0,.07,0,0h.22c.16,0,.24,0,.24,0v0a1.6,1.6,0,0,0-.41,0Zm.1-.25H25l.06,0v0H24.9C24.83,22.53,24.79,22.55,24.79,22.58Zm.44-9.88,0,0,.12,0h.15l.06,0v0Zm.15,8.72v.06c0,.07,0,.1.06.1l.06-.09v-.1q0-.18-.06-.18S25.38,21.28,25.38,21.42Zm.06-4.75v.06l0,0,0,0v-.1l.12-.09v0h-.06A.19.19,0,0,0,25.44,16.67ZM25.53,15l0,0v0h.07V15Zm0-.82,0,0v.06l0,0h0v-.15Zm.09,4.31v0h0s.07-.2.07-.6A2.13,2.13,0,0,0,25.65,18.53Zm.06-5.26h0l0,0h.06a2.39,2.39,0,0,1,.32-.18.39.39,0,0,0,.07-.18l0,0h0a.36.36,0,0,0-.26.16Q25.71,13.15,25.71,13.27Zm.28,6,0,0,0,.93v1.23L26,22h.12s.06,0,.06-.13A10.08,10.08,0,0,0,26,19.23Zm.19-3.16h0l.06.07h0v0Zm0,.26-.06,0v.47h0s.06-.07.06-.21Zm0,.53h-.06V17h0l0,0Zm1.26,6-.84,0h0c0,.06.17.09.5.1h.38l.1,0v0ZM27,23.2h.35c.09,0,.14,0,.15,0v0h-.31C27,23.12,27,23.15,27,23.2Zm.41-.82h-.09v0q0,.09.25.09l.07-.06v-.06H27.4Zm0,1.1h-.09v.06l.09,0h0l.09,0v-.06h-.13Z"/><path class="cls-1" d="M31.23,14.59l.22-.06a14.76,14.76,0,0,1,2.19.44,4.86,4.86,0,0,0,1,.4.68.68,0,0,0,.12-.41v-.13q0-.19.26-.19a.82.82,0,0,1,.5-.13q.44,0,.44.1L36.09,16v.43q0,.53-.15.63c-.09.09-.16.13-.21.13q-.82-.07-.82-.22a.79.79,0,0,0-.51-.51,5.44,5.44,0,0,0-2-.71l-.41,0q-.74,0-.87.28a1,1,0,0,0-.18.63h0A1.55,1.55,0,0,0,31.75,18a4,4,0,0,0,1.46.34q0,.12.66.32.13.22.57.22A4.38,4.38,0,0,1,35.75,20l.06.06v.06s0,0-.09,0v0a2.44,2.44,0,0,1,.21.51q0,1.32-.43,1.66a2.07,2.07,0,0,1-.81.78,2.1,2.1,0,0,1-1.41.63h-.51q-1.16-.18-1.16-.29a3.28,3.28,0,0,0-.78-.47,2.67,2.67,0,0,1-1-.71h-.06q-.18.51-.29.51-.93-.15-.93-.32a5.53,5.53,0,0,1-.1-1.28l.15-.91q0-.5.12-.5l.94-.1q.1,0,.21.81l.41.75a13.1,13.1,0,0,0,1.31.88,1.17,1.17,0,0,0,.93.37H33a1.1,1.1,0,0,0,1.06-.5,2.34,2.34,0,0,0,.5-1.07v0q0-.43-.75-1.07a1,1,0,0,0-.82-.37,6.2,6.2,0,0,0-1.32-.28l-1.18-.6L29.93,18a2.36,2.36,0,0,1-.4-.79l0-.25-.06-.56a.79.79,0,0,1,.25-.49q0-.18.71-.81A2.18,2.18,0,0,0,31.23,14.59Zm-2.57,6.82v.37h0q.1-.06.1-.69V21l0,0h0S28.68,21.1,28.66,21.42Zm.47.76h-.07v.06l.07,0h.06v0Zm.1-1.94h-.07v.06l0,0,.06,0Zm.56-3.93h0a1.78,1.78,0,0,0,.07.4h0v-.4Zm0,5.37h0v.06a.59.59,0,0,0,.43.28h0v0Q29.9,21.68,29.81,21.68ZM29.94,16h-.07v.18l.07-.15Zm.19,1.74,0,0h0l0,0h0v0Zm.06-1.25-.06,0v0h0l.07-.06v0Zm.16-.65h0v0h.06v0Zm0,2h0v0q.1.32.21.32h.06l.07-.07h0Q30.53,17.78,30.4,17.78Zm0-1.76h.09q.32-.23.32-.38h0Q30.62,15.67,30.41,16Zm.4,1.63h0v0l0,0H31v0S30.9,17.65,30.81,17.65Zm.32.13,0,0v.09l.09.09h0l0,0v-.07A.17.17,0,0,0,31.13,17.78Zm0,.78h0q0,.1.19.16h0S31.28,18.61,31.15,18.56ZM31.66,23l-.43,0v0s.13.09.38.15l.06.06h.07Q31.72,23,31.66,23Zm-.28-8.26v.06s.06.07.19.1.4-.05.4-.1v-.06q0-.1-.41-.1A.19.19,0,0,0,31.38,14.74Zm.22,3.4,0,0h0a1.64,1.64,0,0,0,.57.31l0,0Q32.18,18.36,31.6,18.14Zm.19-2.75a.2.2,0,0,0,.15.06.46.46,0,0,0,.31-.16l-.07-.06H32Q31.79,15.23,31.79,15.39Zm.22,8h0l.06.07h.12S32.1,23.37,32,23.37Zm.13-.16,0,0v.06h0Zm.16.25a1.13,1.13,0,0,0,.56.12h0l.63,0v0q0-.12-1-.12C32.38,23.4,32.31,23.42,32.31,23.46Zm.16-7.9-.06.06q0,.1.53.13v0s-.15-.09-.44-.15Zm-.06,2.94a4,4,0,0,0,1,.31h.24a2,2,0,0,0-1.07-.4Zm.18.43V19l.25.09H33v0A1.24,1.24,0,0,0,32.59,18.93Zm1.13,4.44,0,0v0l0,0h.06c.19,0,.28,0,.28-.07l0,0Zm.07-8h0s.06,0,.18.06h0S33.94,15.39,33.79,15.37Zm.18.54h0v0a1.82,1.82,0,0,0,.57.26h0Q34.53,16.12,34,15.92Zm.19,3.22H34v0a5.2,5.2,0,0,0,.78.44.83.83,0,0,0,.46.26h0l0,0A2.31,2.31,0,0,0,34.16,19.14Zm.21,3.07v.06h0a.69.69,0,0,0,.22-.25l0,0A.73.73,0,0,0,34.37,22.21ZM34.53,20h0v.07q0,.15.25.35h.09v-.12Q34.85,20.17,34.53,20Zm.63,2.31-.5.41v0s0,0,.06,0,.28-.16.49-.47Zm-.44-6.57,0,0a1.15,1.15,0,0,0,.47.22V16s-.14-.11-.43-.19Zm.07,5.41h-.07v.07h0l0,0Zm.32-4.35-.06,0a.87.87,0,0,0,.43.07h.29v-.06a5,5,0,0,0-.54,0Zm.1-2.12v0c.11.18.2.26.28.26s.14,0,.18-.15V14.8Q35.67,14.71,35.22,14.71Zm.41,6.47-.12.12v.07l0,0h0q.09,0,.09-.24Zm.1-6,0,.06,0,0h.07v-.09Z"/><path class="cls-1" d="M36.41,12.31l.09,0h.12a3.53,3.53,0,0,1,1.53.37q.1,0,.19.57l-.07.13v0a5.4,5.4,0,0,1,.22,1.85A26.47,26.47,0,0,0,38.65,19h.06q.79-.65,2.46-1.78.13,0,.22-1.31,0-.31.29-.31l.59,0q1.32,0,1.59.28v0l0,0a1.24,1.24,0,0,0-.41-.1l0,.06h0q0,.09.43.13.12,0,.12.69,0,.28-.22.28s-.11.07-.22.21h-.4q0,.16-.34.32s-.06,0-.06.07l.06.1-1.41,1v0q0,.09,1.46,3a3.61,3.61,0,0,1,.26.68h-.09l-.09-.09h0q0,.18.56.18,1,0,1,.18l-.12.15a1.92,1.92,0,0,1,.19,1,.18.18,0,0,1-.21.21h-.13a14.44,14.44,0,0,0-1.72-.06h-.09q-.18,0-.26-.46a7.19,7.19,0,0,0-.29-1.4q-.34-.76-1-2-.25-.74-.38-.74a2,2,0,0,0-.79.46.56.56,0,0,1-.28.16c-.06,0-.09,0-.09-.06h0l0-.07h-.09q-.09,0-.19.4v.09a.27.27,0,0,0-.12.25l0,1.57q0,.19.63.25a1.55,1.55,0,0,0,.46.21l.06.15v.38l0,.21v0a.43.43,0,0,1-.22.19h-.1v.06q0,.1.21.18v0s-.06.05-.18.07l-.69-.18a15.85,15.85,0,0,1-1.85-.16l-.21,0q-.19-.09-.19-.47V23h0a.49.49,0,0,1,.22-.41h.06v.22l.06.06h.19l-.06-.07v0h.26l-.18-.18.21,0v0s-.06,0-.15,0h-.06l-.31,0v0q0-.1.66-.21a4.09,4.09,0,0,1,.5-.09l0-.06h0s-.07,0-.21,0-.12-.42-.12-1.26a9.43,9.43,0,0,0-.28-2.1,39,39,0,0,0-.24-4.37s-.17-.06-.51-.09l-.43.1a.55.55,0,0,1-.18-.26l0-.91V13c0-.15,0-.22.06-.22l.16,0v0a.52.52,0,0,0-.12-.22v-.07c.08,0,.12,0,.12,0l-.06-.1Zm.44,1.07v0s.07.07.22.1v0q-.28,0-.28.09v.06l0,0H37a.35.35,0,0,0,.32-.26l.06-.06q0-.09-.35-.09H37C36.89,13.34,36.85,13.36,36.85,13.39ZM37.22,23h0v0H38q.47,0,.47-.07v0s-.11,0-.32,0A5.53,5.53,0,0,0,37.22,23Zm.47.24,0,0,1.59.22v0q0-.21-.9-.21Zm.09-10.09v0c0,.1.1.15.18.15a.39.39,0,0,0,.1-.26H38A.23.23,0,0,0,37.78,13.15ZM38,14.68l0,.06V15q0,.35.07.35h0l0,0v-.21Q38.1,14.68,38,14.68Zm0,2.13h0v.07l0,0,.06-.06Zm.31,6h0v0h.06Zm.06-3.56,0,.07h0l0,0v0Zm0,1.32v.21l0,0c.08,0,.12,0,.12-.15v-.24l0,0h0C38.37,20.43,38.34,20.49,38.34,20.59Zm0-.57v.13l0,0h0s.07-.07.07-.16v0a1,1,0,0,0-.06-.32h0S38.35,19.78,38.35,20Zm0,2,.07.07h0a.11.11,0,0,0,.07-.12c0-.07,0-.1,0-.1S38.35,22,38.35,22Zm.15-.88h-.06v.24h0s.06-.06.06-.15Zm.28-1.9v0h.06a.39.39,0,0,0,.32-.18v0A.53.53,0,0,0,38.78,19.25Zm0,3.57,0,0h.07Zm.13.29,0,0v0h.31S39.12,23.12,38.94,23.12Zm.34-.29a.33.33,0,0,0,.31.19h0l0,0a.44.44,0,0,0-.15-.24h-.06A.16.16,0,0,0,39.28,22.83Zm.1-3.23v0h0a1.63,1.63,0,0,0,.51-.32v0Q39.38,19.5,39.38,19.59Zm.06,3.84h-.06v0l0,0h.12l0,0S39.51,23.43,39.44,23.43Zm.38-.78h0v0l.06,0h0v0Zm.73-3.43q.1.28.22.28h0c0-.22-.07-.32-.19-.32S40.56,19.19,40.56,19.23Zm.56.78h0a5.29,5.29,0,0,0,.53,1.24h.07v0A3.16,3.16,0,0,0,41.12,20Zm.19-1.82v0h0a4,4,0,0,0,1.38-.85l0-.06h0A4.34,4.34,0,0,0,41.31,18.18Zm0-.65h0a2,2,0,0,0,.46-.26q.15,0,.15-.09v-.06h-.09Q41.69,17.14,41.34,17.53Zm.15-.68.06.06h0c.08,0,.12,0,.13-.06v0h-.06C41.55,16.81,41.5,16.83,41.48,16.86Zm.06-.32c0,.13,0,.19.06.19h.1s0,0,0-.06l-.07-.18.07-.26v0h0A.36.36,0,0,0,41.54,16.53Zm.21,4.88h0v0a.89.89,0,0,0,.25.46H42a1.24,1.24,0,0,0-.26-.49Zm.15-5.73h-.09v.09h.07l0,0v0Zm0,4.85h0v0l.06.06h0v-.06Zm.43,1.85v0l0,.06h.12l.06-.06a.14.14,0,0,0-.13-.09C42.35,22.34,42.32,22.36,42.32,22.39Zm.56-5.73s.16.05.47.07c.11,0,.16,0,.16-.07v-.06h-.4C43,16.59,42.88,16.61,42.88,16.65Zm.21,7.09h.06l.31,0,.35,0h0l0,0h-.66C43.13,23.7,43.09,23.71,43.09,23.74ZM43.2,23l0,0,.07.06h.06l.06-.06,0,0Zm.4.07h-.15l.07,0h.07Zm.53-.25h0v.07l0,0h0v-.07Zm0,.47v.25h0s.06-.1.06-.31v-.1S44.13,23.18,44.13,23.27Z"/><path class="cls-1" d="M45.29,15.83h0a.43.43,0,0,0,.29.1l.19-.09a6.5,6.5,0,0,1,2,.12v.35a1.36,1.36,0,0,1,.13.56v.24q-.18,2.4-.24,3.88a1.91,1.91,0,0,0-.06.31s.05.06.13.06h0q.79,0,.79.19v.12a2.64,2.64,0,0,1,.18,1.12l.06.59,0,0-.65,0H46.7q-1.65,0-1.65-.26a.67.67,0,0,0-.09-.32.34.34,0,0,1,.15-.16h0a.18.18,0,0,0,.13.06h0a8.32,8.32,0,0,0,1-.07v0q-1.26-.09-1.26-.21v-.28l0-.38q0-.15,1.1-.15.15,0,.15-.66l.18-3.87h0Q46,17.09,46,17l0,0q-.88,0-.88-.21s-.06,0-.06-.12l.07-.18a.29.29,0,0,0-.09-.16.84.84,0,0,0,.16-.47Zm.18,6.28-.1,0h0a1.89,1.89,0,0,0,.91.13h.1c.08,0,.13,0,.15-.07v0A9.13,9.13,0,0,0,45.47,22.11Zm.06-6v.06h.07q.38,0,.38-.06l0-.06h0Q45.53,16.06,45.53,16.12Zm.32.21h-.26v0s.07.06.21.06h.69q.22,0,.22-.07h0S46.42,16.29,45.85,16.33Zm1-3.31.5-.07a.9.9,0,0,1,.81.53l.1.47a1.85,1.85,0,0,1-.32.74.8.8,0,0,1-.59.19q-.93,0-1.15-.28a1.29,1.29,0,0,1-.21-.82s-.06,0-.06,0v0Q46.35,13,46.82,13Zm-.29.37h0c.33,0,.5-.08.5-.13l-.07,0C46.67,13.29,46.53,13.34,46.53,13.39Zm.12,5.18,0,1.9c0,.07,0,.1,0,.1s0,0,.06-.13v-.22a1.6,1.6,0,0,0,.16-.59v-.09l0-.21c.06,0,.09-.08.09-.1a.94.94,0,0,1-.06-.32v0A8.83,8.83,0,0,0,47,17.23c0-.08-.06-.12-.09-.12S46.67,17.59,46.64,18.56Zm.46,4.1h-.4v.06h.21l.43,0v0H47.1Zm-.32-8.85h.13a.19.19,0,0,0,.21-.12v0h-.18A.14.14,0,0,0,46.78,13.81Zm.07,8.47.06.07c.09,0,.13,0,.13-.15H47A.11.11,0,0,0,46.85,22.28Zm.19-1,0,.06v.07h0l.06,0v0l0,0ZM47,21v.1h0s.07-.08.07-.18v-.1h0S47,20.93,47,21Zm.15-4.71H47v0a.4.4,0,0,1,.25.15h0s0,0,0,0h0s.06,0,.07.13h0l.21-.15v-.09h-.51Zm-.06.82.07.22-.1.26q.06.13.1.13h0l0-.09v-.09q0-.53.16-.53l0-.06V17l0,0h-.09C47.16,16.92,47.1,17,47.1,17.17Zm.19,2.5h-.07a4.24,4.24,0,0,0-.12.81h0s.11-.2.19-.6v-.21Zm-.13-5.23,0,0v0h.26l0,0,0,0Zm.21,2.84h-.06v.09a.14.14,0,0,0,.07.13h0l0-.06v-.07A.18.18,0,0,0,47.36,17.27Zm.12-3.1v0h.06a.18.18,0,0,0,.16-.1v0h0A.25.25,0,0,0,47.48,14.17Zm0,1.85,0,0,.06,0h0v0Zm.31-2.34,0,.07v.06h0l0-.06v-.07Zm.44,8.56-.18,0q0,.18.26.18h0v0l0,0,.12-.09v-.07c0-.07,0-.11-.06-.12h-.06S48.31,22.15,48.28,22.24Zm-.06-.62h0a.58.58,0,0,0,.32.09v0s-.06-.06-.19-.06Zm0,1,0,.06v0h0l0-.06v0Zm.37.59-.06,0v0h.09v-.09Z"/><path class="cls-1" d="M3.93,30l.22-.06a14.76,14.76,0,0,1,2.19.44,4.86,4.86,0,0,0,1,.4.68.68,0,0,0,.12-.41v-.13q0-.19.26-.19a.82.82,0,0,1,.5-.13q.44,0,.44.1l.13,1.38v.43q0,.53-.15.63c-.09.09-.16.13-.21.13q-.82-.07-.82-.22a.79.79,0,0,0-.51-.51,5.44,5.44,0,0,0-2-.71l-.41,0q-.74,0-.87.28a1,1,0,0,0-.18.63h0a1.55,1.55,0,0,0,.84,1.34,4,4,0,0,0,1.46.34q0,.12.66.32.13.22.57.22a4.38,4.38,0,0,1,1.31,1.12l.06.06v.06s0,0-.09,0v0a2.44,2.44,0,0,1,.21.51q0,1.32-.43,1.66a2.07,2.07,0,0,1-.81.78A2.1,2.1,0,0,1,6,39.1H5.46Q4.3,38.92,4.3,38.8a3.28,3.28,0,0,0-.78-.47,2.67,2.67,0,0,1-1-.71H2.46q-.18.51-.29.51-.93-.15-.93-.32a5.53,5.53,0,0,1-.1-1.28l.15-.91q0-.5.12-.5l.94-.1q.1,0,.21.81l.41.75a13.1,13.1,0,0,0,1.31.88,1.17,1.17,0,0,0,.93.37h.51a1.1,1.1,0,0,0,1.06-.5,2.34,2.34,0,0,0,.5-1.07v0q0-.43-.75-1.07a1,1,0,0,0-.82-.37,6.2,6.2,0,0,0-1.32-.28l-1.18-.6-.57-.49a2.36,2.36,0,0,1-.4-.79l0-.25-.06-.56a.79.79,0,0,1,.25-.49q0-.18.71-.81A2.18,2.18,0,0,0,3.93,30ZM1.36,36.77v.37h0q.1-.06.1-.69v-.12l0,0h0S1.38,36.46,1.36,36.77Zm.47.76H1.75v.06l.07,0h.06v0Zm.1-1.94H1.86v.06l0,0,.06,0Zm.56-3.93h0a1.78,1.78,0,0,0,.07.4h0v-.4ZM2.5,37h0v.06a.59.59,0,0,0,.43.28h0v0Q2.59,37,2.5,37Zm.13-5.72H2.56v.18l.07-.15Zm.19,1.74,0,0h0l0,0h0v0Zm.06-1.25-.06,0v0h0l.07-.06v0ZM3,31.16H3v0h.06v0Zm0,2h0v0q.1.32.21.32h.06l.07-.07h0Q3.22,33.14,3.09,33.14Zm0-1.76h.09q.32-.23.32-.38h0Q3.31,31,3.11,31.38ZM3.5,33h0v0l0,0h.15v0S3.59,33,3.5,33Zm.32.13,0,0v.09l.09.09h0l0,0v-.07A.17.17,0,0,0,3.83,33.14Zm0,.78h0q0,.1.19.16H4S4,34,3.84,33.92Zm.51,4.44-.43,0v0s.13.09.38.15l.06.06h.07Q4.42,38.36,4.36,38.36ZM4.08,30.1v.06s.06.07.19.1.4-.05.4-.1V30.1q0-.1-.41-.1A.19.19,0,0,0,4.08,30.1Zm.22,3.4,0,0h0a1.64,1.64,0,0,0,.57.31l0,0Q4.87,33.72,4.3,33.49Zm.19-2.75a.2.2,0,0,0,.15.06.46.46,0,0,0,.31-.16l-.07-.06H4.71Q4.49,30.58,4.49,30.75Zm.22,8h0l.06.07h.12S4.8,38.73,4.71,38.73Zm.13-.16,0,0v.06h0Zm.16.25a1.13,1.13,0,0,0,.56.12h0l.63,0v0q0-.12-1-.12C5.07,38.76,5,38.78,5,38.82Zm.16-7.9L5.11,31q0,.1.53.13v0s-.15-.09-.44-.15Zm-.06,2.94a4,4,0,0,0,1,.31h.24a2,2,0,0,0-1.07-.4Zm.18.43v.06l.25.09h.16v0A1.24,1.24,0,0,0,5.28,34.29Zm1.13,4.44,0,0v0l0,0h.06c.19,0,.28,0,.28-.07l0,0Zm.07-8h0s.06,0,.18.06h0S6.64,30.75,6.49,30.73Zm.18.54h0v0a1.82,1.82,0,0,0,.57.26h0Q7.22,31.48,6.66,31.27Zm.19,3.22H6.72v0A5.2,5.2,0,0,0,7.5,35a.83.83,0,0,0,.46.26H8l0,0A2.31,2.31,0,0,0,6.86,34.49Zm.21,3.07v.06h0a.69.69,0,0,0,.22-.25l0,0A.73.73,0,0,0,7.06,37.57Zm.16-2.18h0v.07q0,.15.25.35h.09V35.7Q7.55,35.52,7.22,35.39Zm.63,2.31-.5.41v0s0,0,.06,0,.28-.16.49-.47Zm-.44-6.57,0,0a1.15,1.15,0,0,0,.47.22v-.06s-.14-.11-.43-.19Zm.07,5.41H7.41v.07h0l0,0Zm.32-4.35-.06,0a.87.87,0,0,0,.43.07h.29v-.06a5,5,0,0,0-.54,0Zm.1-2.12v0c.11.18.2.26.28.26s.14,0,.18-.15v-.06Q8.37,30.07,7.91,30.07Zm.41,6.47-.12.12v.07l0,0h0q.09,0,.09-.24Zm.1-6,0,.06,0,0H8.5v-.09Z"/><path class="cls-1" d="M10.55,31.39q1.09.13,1.09.4l.07.09v.19l.16.18a.37.37,0,0,0-.16.28.1.1,0,0,0,.1.07h0l-.09.1h-.12a.43.43,0,0,0-.24-.12q-.78,0-.19,1.28a6.52,6.52,0,0,0,.72,1.85q.82,1.88,1.12,1.94h0a2.35,2.35,0,0,0,.34-.72,13.5,13.5,0,0,0,.87-1.87,1.52,1.52,0,0,0,.25-.59l0-.15q1-1.79.07-1.75l-.18,0H14.3q0-1.29.28-1.29a6.56,6.56,0,0,1,1.84-.15q.68,0,.68.5a1.11,1.11,0,0,1,.16.35.56.56,0,0,0-.24.44l-.54.1-.49,1a21.43,21.43,0,0,1-1,2l-.4,1.22q-.88,1.82-.91,1.82s0,0,0,.09v.12h0q0,.22-.37.26l-.29.18a1.09,1.09,0,0,1-.51-.22l-.72-1q-.18-.65-.32-.65a2.41,2.41,0,0,1-.25-.74q-.29-.51-.56-.9a.2.2,0,0,1,.07-.13v-.06L10.4,35a2.35,2.35,0,0,0-.32-.85q-.49-1.4-.66-1.4s-.06.08-.19.09a1,1,0,0,1-.59-.25v0l0-.07v0s-.07-.07-.21-.15v0q.34-.07.34-.15L8.59,32h0v0l.1-.13s0-.09-.1-.15v0Q10.28,31.39,10.55,31.39ZM9,32.6l0,0,0,0h.19v0l-.16,0Zm.37-.53-.06,0v.06l.07,0q.21,0,.21-.1l0,0Zm.53.93h0v0c.08,0,.12.07.14.06S10,33.05,9.94,33Zm.18-1.35s.08,0,.24,0h.54v0a1.19,1.19,0,0,0-.44-.1h-.18Q10.15,31.55,10.12,31.64Zm.46,2.51h0q0,.18.09.18v0C10.64,34.21,10.62,34.16,10.58,34.16Zm1,1.57h0v0q.19.57.32.57v0Q11.71,35.76,11.59,35.73Zm.49,2h0v0q0,.15.28.28h0A.7.7,0,0,0,12.08,37.69Zm.34.76h0l0,.09h0v0Zm.06-.78h0a.71.71,0,0,0,.22.37h.06A.92.92,0,0,0,12.47,37.67Zm.07.5,0,0q.19.27.37.26v0A.36.36,0,0,0,12.55,38.17Zm.4-.16v0q.09.28.25.28a1,1,0,0,0,.16-.38v0h0A2,2,0,0,1,12.94,38Zm.72.13H13.6l-.37.65v0q.29,0,.37-.56S13.66,38.23,13.66,38.14ZM14,36.46h0a8.08,8.08,0,0,0-.54,1.12l0,0a4.35,4.35,0,0,0,.5-1,.24.24,0,0,0,0-.15ZM13.68,38h0a8.74,8.74,0,0,0,.69-1.38l0-.22h0a1.93,1.93,0,0,0-.43.82A2.35,2.35,0,0,0,13.68,38Zm.71-6.18V32q0,.22.16.22h0l0,0h0q-.13-.35-.18-.35A.11.11,0,0,0,14.38,31.86Zm.13-.37v.07l0,.07h0a6.36,6.36,0,0,1,1.71-.16h0v0s-.08,0-.24,0A9.3,9.3,0,0,0,14.52,31.49Zm.06,3.85h0l0,0s.07,0,.07-.1v0l0-.06S14.58,35.26,14.58,35.35Zm.21-.22-.06.06,0,.06,0-.07v0Zm0-3.23,0,.06,0,0q.09,0,.09,0v0Zm0,3.06h0a.66.66,0,0,0,.18-.34h0Q14.88,34.6,14.84,35Zm.22-.62v.09h.06a.39.39,0,0,0,.15-.29v-.06h-.06A.29.29,0,0,0,15.06,34.33Zm.28-.63v.06h.06s.1-.1.15-.31v-.06h0v0S15.42,33.48,15.34,33.7Zm.24.06h0v0h0Zm0-.47v.1h0q.09,0,.21-.34A.32.32,0,0,1,16,33v-.13l0-.06v0l.07,0a.23.23,0,0,0-.12-.21Q15.78,32.54,15.6,33.29Zm.79-1.22h0l.21,0q.22,0,.22,0s-.06-.06-.19-.07H16.5C16.43,32,16.4,32,16.4,32.07Z"/><path class="cls-1" d="M17.59,31.19h0a.43.43,0,0,0,.29.1l.19-.09a6.5,6.5,0,0,1,2,.12v.35a1.36,1.36,0,0,1,.13.56v.24q-.18,2.4-.24,3.88a1.91,1.91,0,0,0-.06.31s.05.06.13.06h0q.79,0,.79.19V37a2.64,2.64,0,0,1,.18,1.12l.06.59,0,0-.65,0H19q-1.65,0-1.65-.26a.67.67,0,0,0-.09-.32.34.34,0,0,1,.15-.16h0a.18.18,0,0,0,.13.06h0a8.32,8.32,0,0,0,1-.07v0q-1.26-.09-1.26-.21v-.28l0-.38q0-.15,1.1-.15.15,0,.15-.66l.18-3.87h0q-.41,0-.41-.06l0,0q-.88,0-.88-.21s-.06,0-.06-.12l.07-.18a.29.29,0,0,0-.09-.16.84.84,0,0,0,.16-.47Zm.18,6.28-.1,0h0a1.89,1.89,0,0,0,.91.13h.1c.08,0,.13,0,.15-.07v0A9.13,9.13,0,0,0,17.77,37.46Zm.06-6v.06h.07q.38,0,.38-.06l0-.06h0Q17.82,31.42,17.83,31.48Zm.32.21h-.26v0s.07.06.21.06h.69q.22,0,.22-.07h0S18.72,31.65,18.15,31.69Zm1-3.31.5-.07a.9.9,0,0,1,.81.53l.1.47a1.85,1.85,0,0,1-.32.74.8.8,0,0,1-.59.19q-.93,0-1.15-.28a1.29,1.29,0,0,1-.21-.82s-.06,0-.06,0v0Q18.65,28.38,19.12,28.38Zm-.29.37h0c.33,0,.5-.08.5-.13l-.07,0C19,28.65,18.82,28.7,18.82,28.75Zm.12,5.18,0,1.9c0,.07,0,.1,0,.1s0,0,.06-.13v-.22a1.6,1.6,0,0,0,.16-.59v-.09l0-.21c.06,0,.09-.08.09-.1a.94.94,0,0,1-.06-.32v0a8.83,8.83,0,0,0,.15-1.65c0-.08-.06-.12-.09-.12S19,33,18.94,33.92ZM19.4,38H19v.06h.21l.43,0v0H19.4Zm-.32-8.85h.13a.19.19,0,0,0,.21-.12v0h-.18A.14.14,0,0,0,19.07,29.17Zm.07,8.47.06.07c.09,0,.13,0,.13-.15h-.07A.11.11,0,0,0,19.15,37.64Zm.19-1,0,.06v.07h0l.06,0v0l0,0Zm0-.22v.1h0s.07-.08.07-.18v-.1h0S19.33,36.29,19.31,36.41Zm.15-4.71h-.13v0a.4.4,0,0,1,.25.15h0s0,0,0,0h0s.06,0,.07.13h0L20,31.8v-.09h-.51Zm-.06.82.07.22-.1.26q.06.13.1.13h0l0-.09V33q0-.53.16-.53l0-.06v-.06l0,0h-.09C19.46,32.27,19.4,32.36,19.4,32.52Zm.19,2.5h-.07a4.24,4.24,0,0,0-.12.81h0s.11-.2.19-.6V35Zm-.13-5.23,0,0v0h.26l0,0,0,0Zm.21,2.84H19.6v.09a.14.14,0,0,0,.07.13h0l0-.06v-.07A.18.18,0,0,0,19.66,32.63Zm.12-3.1v0h.06a.18.18,0,0,0,.16-.1v0h0A.25.25,0,0,0,19.78,29.52Zm0,1.85,0,0,.06,0h0v0ZM20.13,29l0,.07v.06h0l0-.06V29Zm.44,8.56-.18,0q0,.18.26.18h0v0l0,0,.12-.09v-.07c0-.07,0-.11-.06-.12h-.06S20.61,37.51,20.57,37.6ZM20.52,37h0a.58.58,0,0,0,.32.09v0S20.73,37,20.6,37Zm0,1,0,.06v0h0l0-.06v0Zm.37.59-.06,0v0h.09v-.09Z"/><path class="cls-1" d="M24.82,26.94a.78.78,0,0,1,.53.18,5.47,5.47,0,0,0-.24,1.48L25,30q0,.1.59.1,1.73,0,1.74.16a.3.3,0,0,1,.18.09.58.58,0,0,0-.15.28v0l0,.29-.19.65q0,.1.22.29v0a1.91,1.91,0,0,1-.57.12q-.24,0-.24-.07v0h.24l.06-.06v0H25s-.1.27-.16.82h0l-.21-.24,0,.16v.09c0,.27,0,.42.1.44s.07-.09.1-.26v-.1h0v0l-.1,1.41a13.48,13.48,0,0,0,.31,3q.07.47.37.47a.73.73,0,0,0,.4.1h.26l.88,0a4.06,4.06,0,0,1,.1.78.37.37,0,0,1-.1.35.63.63,0,0,1-.42.11l-1.13,0a2.39,2.39,0,0,1-1.56-.51q-.41-.15-.41-.88,0-.4-.1-2.35l.18-2,0-.87v-.12q-.1-.62-.35-.62h-1a1,1,0,0,0-.44.1q-.15,0-.37-.4L21.78,30A10.16,10.16,0,0,1,23.56,30a.93.93,0,0,1,.21-.49,9.7,9.7,0,0,1,.16-2.29v0s0,0-.07,0v0A4.17,4.17,0,0,1,24.82,26.94Zm-3,3.28c0,.07,0,.1.13.1h.22a9.82,9.82,0,0,0,1.12-.06v0s-.24-.07-.72-.07H22C21.91,30.16,21.87,30.18,21.87,30.22Zm.24.28,0,0v.09q0,.15,1,.15.5,0,.5-.07t-1.29-.19Zm.13.51-.06,0s0,.06.07.06H23v0a2.45,2.45,0,0,0-.66-.06Zm1.15.28-1.21,0v0q0,.1,1.12.1l.12,0h0Zm.21,3.9,0,.41v.66h0q.09,0,.09-.69v-.34q0-.68-.06-.68T23.59,35.19Zm.5,1.9h0v.22l0,.09h0l0,0v-.25Zm.06,1h0v.06q0,.37.32.37h.15l0,0h0s-.09-.05-.26-.1Zm0-6.09v.12l0,0s.06,0,.06-.1V32l0-.1h0S24.19,32,24.19,32Zm.07.29h0v.24h.06v-.21Zm0-5h0v.09h0v-.06Zm0,6h0v.12l0,.06h0v-.06Zm.07-5.41,0,0a2,2,0,0,0,0,.38v.06h0l0-.25Zm0,.62h0L24.32,30h0l0,0h0q.1,0,.1-.37v-.34l0-.72C24.45,28.55,24.43,28.52,24.41,28.52Zm.13,7.82h0v.22c0,.07,0,.11.06.12h0s.06,0,.06-.1S24.6,36.35,24.54,36.35Zm0,1.66h0v.09a.22.22,0,0,0,.1.12h.1v0Q24.72,38,24.51,38Zm.15-1-.06.16q0,.34.15.43l0-.06v-.13Q24.76,37,24.66,37Zm.07-4.71-.07-.06v0l.06.06h0Zm.16-4.91-.06.06v0l0,.34h0a.48.48,0,0,0,.18-.31v-.06l0-.06Zm.34,3.26,0,0h0s.18.08.53.09H26l.34.06h.06c.07,0,.1,0,.1-.09h0l-1.12-.1Zm.25.71h-.07v0a2.33,2.33,0,0,0,.51.15h0v0A.83.83,0,0,0,25.49,31.33Zm1-1.18-.19.07h-.43v0a2.17,2.17,0,0,0,.56.09h.34s0,0,0,0-.07-.16-.16-.16Zm-.31,8.15h.06q.54-.09.54-.19l0,0Q26.15,38.23,26.15,38.3Zm.09-6.82a2.26,2.26,0,0,0,.71.13l.06-.06v-.09l0,0h-.32Q26.24,31.42,26.24,31.48Zm.59-.53-.06.06h0l.06,0h.07q.13,0,.16-.09l0,0Zm0-.65,0,0v0h0c.1,0,.15,0,.16-.06h-.16Z"/><path class="cls-1" d="M30,30.79l1.82,0a4.89,4.89,0,0,1,1,.21,4,4,0,0,1,1,1.26,2.79,2.79,0,0,1,.51,1.34,1.57,1.57,0,0,1,.24,1V35l-.06,1.46a1.87,1.87,0,0,0,.54,1.09q.5.49.65.49v0q0,.18-.51.56T34.7,39h0a4.15,4.15,0,0,1-1.19-.87l-1.75.69a4.34,4.34,0,0,1-1.28.18H30.4A2.69,2.69,0,0,1,29,38.35a3.56,3.56,0,0,1-.43-.74,1.21,1.21,0,0,1-.26-.79v-.43a1.41,1.41,0,0,1,.22-.76,3.25,3.25,0,0,1,.66-1.15,1.06,1.06,0,0,1,.47-.35,3.18,3.18,0,0,1,1.51-.41H32a1.46,1.46,0,0,1,.79.16h.09s.07,0,.07-.06a4.81,4.81,0,0,0-.53-1.32,1.29,1.29,0,0,0-1.21-.54l-.6-.09q-.78.16-.78.32a1.87,1.87,0,0,0-.37,1s-.2.07-.53.07l-.09,0s-.09.08-.15.25q-.41-.06-.41-.18t.1-1.06A2.59,2.59,0,0,1,29.48,31,1.79,1.79,0,0,1,30,30.79Zm-1,2,0,0V33h0s.06,0,.06-.1v-.12Zm.12-1.09v0h0q.13,0,.4-.28v0h0Q29.32,31.41,29.07,31.7Zm.22,5.9,0,0h0l0,0h.07v0l0,0Zm0,.76,0,.06q.06.13.74.34a1.41,1.41,0,0,0,.59.1h0s-.19-.08-.56-.16a2.36,2.36,0,0,1-.68-.32Zm.31-3.79-.16.07v.07h0a.15.15,0,0,0,.15-.12v0ZM29.48,36q.1.88.25.88l.15.19h-.13v0a2.49,2.49,0,0,0,1.15.71.86.86,0,0,0,.29.09,9.93,9.93,0,0,0,2-.87.2.2,0,0,0,.12-.16v-.07a13.37,13.37,0,0,1-.22-1.41h0q0-.16-.32-.26a6.72,6.72,0,0,0-1.49-.31,2.71,2.71,0,0,0-1.53.75A.72.72,0,0,0,29.48,36Zm.91-4.73v0s.06,0,.15,0a1.14,1.14,0,0,0,.37-.09v-.06h-.06A1.24,1.24,0,0,0,30.4,31.23Zm.54,6.93,0,0a.11.11,0,0,0,.12.07c.11,0,.16,0,.16-.07h0l0,0Zm.18-6.56-.07.06,0,.07h.19l0,0-.09-.09Zm.51-.56,0,0,0,.06h.09v0l0-.07Zm.49,7v0h.06a1.27,1.27,0,0,0,.54-.18h-.06Q32.16,37.89,32.12,38Zm.63-6.84h0v0a.32.32,0,0,0,.21.12h0v0A.32.32,0,0,0,32.75,31.16Zm.71,5h0v.09l0,.06h0l.06-.06v-.09h-.1Zm0-.51,0,0,0,.06h.06v0l0,0Zm.41-.65,0,0v0h0Zm.06.28h-.09v.06l0,0,0,0Zm0-.81,0,0v0c0,.15.08.22.12.22h0a.44.44,0,0,0-.09-.29ZM34,35.7h0q0,.56.12.56l0,0v0A1.15,1.15,0,0,0,34,35.7Zm.22,2.09,0,0a.23.23,0,0,0,.12.13h0l.06-.06v0l-.07-.09Zm0-3.82h0v0c0,.08,0,.12.06.12V34S34.31,34,34.29,34ZM34.57,38l0,.06v0l.06.06h.06l0,0v0L34.63,38Zm.13-.49h0v.09c0,.13.08.19.13.19h0v0C34.8,37.63,34.75,37.55,34.7,37.55Z"/><path class="cls-1" d="M35.91,27.67l.09,0h.12a3.53,3.53,0,0,1,1.53.37q.1,0,.19.57l-.07.13v0A5.4,5.4,0,0,1,38,30.63a26.47,26.47,0,0,0,.16,3.78h.06q.79-.65,2.46-1.78.13,0,.22-1.31,0-.31.29-.31l.59,0q1.32,0,1.59.28v0l0,0a1.24,1.24,0,0,0-.41-.1l0,.06h0q0,.09.43.13.12,0,.12.69,0,.28-.22.28s-.11.07-.22.21h-.4q0,.16-.34.32s-.06,0-.06.07l.06.1-1.41,1v0q0,.09,1.46,3a3.61,3.61,0,0,1,.26.68h-.09l-.09-.09h0q0,.18.56.18,1,0,1,.18l-.12.15a1.92,1.92,0,0,1,.19,1,.18.18,0,0,1-.21.21h-.13a14.44,14.44,0,0,0-1.72-.06h-.09q-.18,0-.26-.46a7.19,7.19,0,0,0-.29-1.4q-.34-.76-1-2-.25-.74-.38-.74a2,2,0,0,0-.79.46.56.56,0,0,1-.28.16c-.06,0-.09,0-.09-.06h0l0-.07h-.09q-.09,0-.19.4v.09a.27.27,0,0,0-.12.25l0,1.57q0,.19.63.25a1.55,1.55,0,0,0,.46.21l.06.15v.38l0,.21v0a.43.43,0,0,1-.22.19h-.1v.06q0,.1.21.18v0s-.06.05-.18.07L38.56,39a15.85,15.85,0,0,1-1.85-.16l-.21,0q-.19-.09-.19-.47v-.09h0a.49.49,0,0,1,.22-.41h.06v.22l.06.06h.19l-.06-.07v0H37l-.18-.18.21,0v0s-.06,0-.15,0h-.06l-.31,0v0q0-.1.66-.21a4.09,4.09,0,0,1,.5-.09l0-.06h0s-.07,0-.21,0-.12-.42-.12-1.26a9.43,9.43,0,0,0-.28-2.1,39,39,0,0,0-.24-4.37s-.17-.06-.51-.09l-.43.1a.55.55,0,0,1-.18-.26l0-.91v-.06c0-.15,0-.22.06-.22l.16,0v0a.52.52,0,0,0-.12-.22v-.07c.08,0,.12,0,.12,0l-.06-.1Zm.44,1.07v0s.07.07.22.1v0q-.28,0-.28.09v.06l0,0h.15a.35.35,0,0,0,.32-.26l.06-.06q0-.09-.35-.09h-.06C36.39,28.7,36.35,28.72,36.35,28.75Zm.37,9.62h0v0h.78q.47,0,.47-.07v0s-.11,0-.32,0A5.53,5.53,0,0,0,36.72,38.36Zm.47.24,0,0,1.59.22v0q0-.21-.9-.21Zm.09-10.09v0c0,.1.1.15.18.15a.39.39,0,0,0,.1-.26H37.5A.23.23,0,0,0,37.28,28.51ZM37.51,30l0,.06v.29q0,.35.07.35h0l0,0v-.21Q37.6,30,37.51,30Zm0,2.13h0v.07l0,0,.06-.06Zm.31,6h0v0h.06Zm.06-3.56,0,.07h0l0,0v0Zm0,1.32v.21l0,0c.08,0,.12,0,.12-.15V35.8l0,0h0C37.87,35.78,37.84,35.84,37.84,36Zm0-.57v.13l0,0h0s.07-.07.07-.16v0a1,1,0,0,0-.06-.32h0S37.85,35.14,37.85,35.38Zm0,2,.07.07h0a.11.11,0,0,0,.07-.12c0-.07,0-.1,0-.1S37.85,37.34,37.85,37.39Zm.15-.88h-.06v.24h0s.06-.06.06-.15Zm.28-1.9v0h.06a.39.39,0,0,0,.32-.18v0A.53.53,0,0,0,38.28,34.61Zm0,3.57,0,0h.07Zm.13.29,0,0v0h.31S38.62,38.48,38.44,38.48Zm.34-.29a.33.33,0,0,0,.31.19h0l0,0A.44.44,0,0,0,39,38.1h-.06A.16.16,0,0,0,38.78,38.18Zm.1-3.23v0h0a1.63,1.63,0,0,0,.51-.32v0Q38.88,34.86,38.88,35Zm.06,3.84h-.06v0l0,0H39l0,0S39,38.79,38.94,38.79Zm.38-.78h0v0l.06,0h0v0Zm.73-3.43q.1.28.22.28h0c0-.22-.07-.32-.19-.32S40.06,34.54,40.06,34.58Zm.56.78h0a5.29,5.29,0,0,0,.53,1.24h.07v0A3.16,3.16,0,0,0,40.62,35.36Zm.19-1.82v0h0a4,4,0,0,0,1.38-.85l0-.06h0A4.34,4.34,0,0,0,40.81,33.54Zm0-.65h0a2,2,0,0,0,.46-.26q.15,0,.15-.09V32.5h-.09Q41.19,32.5,40.84,32.89Zm.15-.68.06.06h0c.08,0,.12,0,.13-.06v0h-.06C41.05,32.17,41,32.19,41,32.22Zm.06-.32c0,.13,0,.19.06.19h.1s0,0,0-.06l-.07-.18.07-.26v0h0A.36.36,0,0,0,41,31.89Zm.21,4.88h0v0a.89.89,0,0,0,.25.46h.06a1.24,1.24,0,0,0-.26-.49ZM41.39,31h-.09v.09h.07l0,0v0Zm0,4.85h0v0l.06.06h0v-.06Zm.43,1.85v0l0,.06H42l.06-.06a.14.14,0,0,0-.13-.09C41.85,37.69,41.82,37.71,41.82,37.74ZM42.38,32s.16.05.47.07c.11,0,.16,0,.16-.07V32h-.4C42.46,32,42.38,32,42.38,32Zm.21,7.09h.06l.31,0,.35,0h0l0,0h-.66C42.63,39.05,42.59,39.07,42.59,39.1Zm.12-.76,0,0,.07.06h.06l.06-.06,0,0Zm.4.07H43l.07,0h.07Zm.53-.25h0v.07l0,0h0v-.07Zm0,.47v.25h0s.06-.1.06-.31v-.1S43.63,38.54,43.63,38.63Z"/></svg>